<svg xmlns="http://www.w3.org/2000/svg" width="512" height="512" viewBox="0 0 512 512">
  <defs>
    <linearGradient id="grad" x1="0%" y1="0%" x2="100%" y2="100%">
      <stop offset="0%" style="stop-color:#6366F1;stop-opacity:1" />
      <stop offset="100%" style="stop-color:#8B5CF6;stop-opacity:1" />
    </linearGradient>
  </defs>
  <rect width="512" height="512" rx="108" fill="url(#grad)"/>
  <g transform="translate(128, 128) scale(1.5)">
    <path d="M85.333 21.333C47.872 21.333 17.067 52.139 17.067 89.6C17.067 127.061 47.872 157.867 85.333 157.867C122.795 157.867 153.6 127.061 153.6 89.6C153.6 52.139 122.795 21.333 85.333 21.333ZM85.333 38.4C89.387 38.4 92.587 41.6 92.587 45.653V59.733H110.933C114.987 59.733 118.187 62.933 118.187 66.987C118.187 71.04 114.987 74.24 110.933 74.24H92.587V88.32C92.587 92.373 89.387 95.573 85.333 95.573C81.28 95.573 78.08 92.373 78.08 88.32V74.24H59.733C55.68 74.24 52.48 71.04 52.48 66.987C52.48 62.933 55.68 59.733 59.733 59.733H78.08V45.653C78.08 41.6 81.28 38.4 85.333 38.4Z" fill="white"/>
    <rect x="52" y="100" width="68" height="8" rx="4" fill="white"/>
    <rect x="60" y="116" width="52" height="8" rx="4" fill="white"/>
    <rect x="72" y="132" width="28" height="8" rx="4" fill="white"/>
  </g>
</svg>
